<?xml version="1.0" standalone="no"?>
<!DOCTYPE svg PUBLIC "-//W3C//DTD SVG 20010904//EN"
 "http://www.w3.org/TR/2001/REC-SVG-20010904/DTD/svg10.dtd">
<svg version="1.0" xmlns="http://www.w3.org/2000/svg"
 width="896.000000pt" height="896.000000pt" viewBox="0 0 896.000000 896.000000"
 preserveAspectRatio="xMidYMid meet">
<metadata>
Created by potrace 1.14, written by Peter Selinger 2001-2017
</metadata>
<g transform="translate(0.000000,896.000000) scale(0.100000,-0.100000)"
fill="#000000" stroke="none">
<path d="M1201 7275 c-5 -8 -7 -1276 -2 -1356 1 -14 59 -16 569 -16 312 0 587
-3 612 -7 98 -14 184 -59 244 -128 39 -44 91 -144 101 -193 13 -66 22 -137 19
-163 -2 -15 -5 -50 -8 -79 -3 -29 -10 -71 -17 -95 -6 -24 -12 -47 -13 -53 -1
-10 -17 -53 -38 -105 -22 -56 -55 -119 -101 -195 -27 -44 -54 -89 -60 -100 -7
-10 -16 -24 -22 -31 -5 -6 -17 -22 -25 -34 -8 -12 -19 -28 -25 -34 -5 -6 -28
-34 -50 -61 -22 -28 -50 -61 -62 -75 -12 -14 -31 -36 -43 -50 -50 -58 -263
-283 -361 -380 -110 -110 -119 -118 -209 -190 -30 -25 -57 -47 -60 -50 -24
-26 -377 -270 -390 -270 -5 0 -10 -3 -12 -8 -4 -9 -185 -122 -196 -122 -5 0
-17 -8 -28 -17 -11 -10 -36 -26 -55 -37 -19 -10 -47 -26 -64 -36 -168 -95
-227 -127 -435 -233 l-185 -95 0 -278 c0 -154 -4 -285 -8 -292 -9 -13 -36 -11
-124 7 -106 21 -185 -100 -128 -197 27 -45 92 -67 147 -51 56 16 82 19 98 9
12 -7 14 -55 14 -292 l0 -283 2011 1 c1105 1 2015 2 2022 3 8 1 11 177 11 691
l1 690 -822 0 -822 1 50 45 c28 26 90 83 139 128 49 44 117 106 150 136 189
172 563 559 646 668 14 18 34 43 44 55 10 12 49 63 86 112 233 315 386 643
449 965 18 89 19 92 27 160 13 103 9 515 -6 515 -1 0 -3 11 -5 25 -10 72 -55
223 -93 315 -44 104 -171 328 -202 355 -3 3 -21 25 -40 50 -53 69 -203 214
-288 278 -93 70 -158 112 -172 112 -5 0 -10 3 -10 8 0 9 -272 141 -304 146
-25 5 -92 29 -103 39 -7 5 -13 7 -13 4 0 -3 -29 3 -65 13 -36 10 -65 17 -65
15 0 -3 -10 -1 -23 4 -13 5 -41 12 -63 15 -21 4 -46 8 -54 11 -8 2 -35 6 -60
9 -25 3 -65 8 -90 11 -126 16 -598 25 -617 12 -6 -4 -14 -4 -16 0 -9 14 -159
6 -169 -9 -5 -7 -6 -29 -3 -48 21 -120 15 -155 -37 -191 -102 -73 -234 25
-196 146 16 51 16 84 1 97 -18 15 -371 18 -382 3z"/>
<path d="M4638 7280 l-23 -6 0 -683 c0 -398 4 -685 9 -688 5 -4 373 -6 818 -6
444 0 808 -3 808 -7 0 -3 -23 -26 -51 -51 -28 -24 -63 -55 -78 -69 -15 -14
-78 -72 -141 -130 -116 -105 -494 -481 -561 -555 -83 -94 -205 -243 -260 -319
-32 -44 -63 -85 -67 -91 -38 -51 -162 -256 -162 -270 0 -5 -7 -16 -14 -24 -55
-60 -201 -471 -222 -622 -7 -46 -12 -74 -14 -74 -1 0 -3 -20 -5 -45 -2 -25 -6
-72 -9 -104 -9 -87 -10 -230 -2 -311 15 -146 64 -344 102 -417 9 -16 13 -28 9
-28 -8 0 93 -199 126 -247 16 -23 29 -46 29 -52 0 -6 3 -11 8 -11 4 0 18 -17
32 -37 87 -130 264 -299 430 -410 94 -62 246 -144 254 -136 3 4 6 1 6 -5 0 -7
8 -12 18 -12 10 0 22 -4 28 -9 28 -26 365 -127 444 -133 17 -1 34 -6 36 -10 3
-5 9 -6 13 -4 4 3 36 1 72 -4 125 -18 237 -23 542 -24 338 0 334 -1 322 59 -4
17 -7 35 -9 40 -1 6 -4 15 -7 20 -10 17 -1 75 16 101 25 39 72 62 116 59 92
-8 145 -98 110 -188 -14 -36 -14 -74 -1 -82 8 -5 264 -9 373 -6 16 1 17 41 17
689 l0 688 -572 0 c-612 -1 -646 1 -744 49 -113 55 -199 183 -222 330 -29 189
25 395 170 650 13 22 25 42 28 45 3 3 19 25 35 50 59 88 205 266 304 369 29
31 99 105 155 165 147 157 251 256 356 336 18 14 38 30 44 36 12 11 205 151
241 174 12 8 91 59 173 113 83 53 159 100 169 104 10 4 20 9 23 13 5 6 185
111 280 163 48 27 410 214 447 231 14 7 23 20 23 36 1 14 1 140 2 280 0 155 4
260 10 268 13 15 52 16 78 2 36 -20 97 -15 134 11 77 52 73 169 -8 213 -44 23
-58 24 -130 7 -89 -22 -87 -30 -86 292 1 148 -1 271 -4 274 -8 8 -247 9 -253
0 -2 -4 -10 -4 -16 0 -15 10 -168 10 -185 -1 -6 -4 -12 -4 -12 1 0 10 -731 10
-747 0 -6 -4 -14 -4 -16 0 -6 10 -169 9 -185 -1 -7 -4 -12 -4 -12 1 0 10 -411
10 -427 0 -6 -4 -14 -4 -16 0 -6 10 -169 9 -185 -1 -7 -4 -12 -4 -12 1 0 10
-251 10 -267 0 -6 -4 -14 -4 -16 0 -6 10 -169 9 -185 -1 -7 -4 -12 -4 -12 1 0
10 -91 10 -107 0 -6 -4 -14 -4 -16 0 -6 10 -169 9 -185 -1 -7 -4 -12 -4 -12 1
0 10 -571 10 -587 0 -6 -4 -14 -4 -16 0 -6 10 -169 9 -185 -1 -7 -4 -12 -4
-12 1 0 9 -315 11 -352 3z"/>
</g>
</svg>
